<?xml version="1.0"?>
<svg xmlns="http://www.w3.org/2000/svg" xmlns:xlink="http://www.w3.org/1999/xlink" version="1.1" id="Capa_1" x="0px" y="0px" viewBox="0 0 511.788 511.788" style="enable-background:new 0 0 511.788 511.788;" xml:space="preserve" width="512px" height="512px"><g><g>
	<g>
		<path d="M507.79,247.898h-0.078c-2.201,0-3.951,1.788-3.951,3.998c0,2.21,1.828,3.998,4.029,3.998    c2.203,0,3.998-1.788,3.998-3.998C511.788,249.686,509.992,247.898,507.79,247.898z" data-original="#000000" class="active-path" data-old_color="#c49c99" fill="#c49c99"/>
	</g>
</g><g>
	<g>
		<path d="M451.818,295.875h-0.078c-2.202,0-3.951,1.789-3.951,3.998c0,2.21,1.827,3.998,4.029,3.998    c2.202,0,3.998-1.789,3.998-3.998S454.02,295.875,451.818,295.875z" data-original="#000000" class="active-path" data-old_color="#c49c99" fill="#c49c99"/>
	</g>
</g><g>
	<g>
		<path d="M419.833,383.833h-0.078c-2.202,0-3.951,1.788-3.951,3.998c0,2.21,1.827,3.998,4.029,3.998    c2.202,0,3.998-1.788,3.998-3.998C423.831,385.621,422.034,383.833,419.833,383.833z" data-original="#000000" class="active-path" data-old_color="#c49c99" fill="#c49c99"/>
	</g>
</g><g>
	<g>
		<path d="M355.864,487.783h-0.078c-2.202,0-3.951,1.788-3.951,3.998c0,2.21,1.827,3.998,4.029,3.998    c2.202,0,3.998-1.788,3.998-3.998C359.862,489.571,358.066,487.783,355.864,487.783z" data-original="#000000" class="active-path" data-old_color="#c49c99" fill="#c49c99"/>
	</g>
</g><g>
	<g>
		<path d="M163.96,423.814h-0.086c-2.201,0-3.951,1.787-3.951,3.998c0,2.209,1.827,3.998,4.037,3.998    c2.202,0,3.998-1.789,3.998-3.998C167.958,425.601,166.162,423.814,163.96,423.814z" data-original="#000000" class="active-path" data-old_color="#c49c99" fill="#c49c99"/>
	</g>
</g><g>
	<g>
		<path d="M20.029,351.848h-0.085c-2.202,0-3.952,1.788-3.952,3.998c0,2.21,1.828,3.998,4.037,3.998    c2.202,0,3.999-1.788,3.999-3.998C24.028,353.636,22.231,351.848,20.029,351.848z" data-original="#000000" class="active-path" data-old_color="#c49c99" fill="#c49c99"/>
	</g>
</g><g>
	<g>
		<path d="M60.01,263.89h-0.086c-2.202,0-3.951,1.788-3.951,3.998c0,2.21,1.827,3.998,4.037,3.998c2.202,0,3.998-1.788,3.998-3.998    C64.008,265.678,62.212,263.89,60.01,263.89z" data-original="#000000" class="active-path" data-old_color="#c49c99" fill="#c49c99"/>
	</g>
</g><g>
	<g>
		<path d="M83.998,143.948h-0.086c-2.202,0-3.951,1.788-3.951,3.998s1.827,3.998,4.037,3.998c2.203,0,3.998-1.788,3.998-3.998    S86.2,143.948,83.998,143.948z" data-original="#000000" class="active-path" data-old_color="#c49c99" fill="#c49c99"/>
	</g>
</g><g>
	<g>
		<path d="M179.953,71.982h-0.086c-2.202,0-3.951,1.789-3.951,3.998c0,2.21,1.827,3.998,4.037,3.998    c2.201,0,3.998-1.788,3.998-3.998C183.951,73.771,182.155,71.982,179.953,71.982z" data-original="#000000" class="active-path" data-old_color="#c49c99" fill="#c49c99"/>
	</g>
</g><g>
	<g>
		<path d="M307.887,32.002h-0.078c-2.202,0-3.951,1.788-3.951,3.998c0,2.21,1.827,3.998,4.029,3.998    c2.202,0,3.998-1.788,3.998-3.998C311.885,33.79,310.089,32.002,307.887,32.002z" data-original="#000000" class="active-path" data-old_color="#c49c99" fill="#c49c99"/>
	</g>
</g><g>
	<g>
		<path d="M451.818,143.948h-0.078c-2.202,0-3.951,1.788-3.951,3.998s1.827,3.998,4.029,3.998c2.202,0,3.998-1.788,3.998-3.998    S454.02,143.948,451.818,143.948z" data-original="#000000" class="active-path" data-old_color="#c49c99" fill="#c49c99"/>
	</g>
</g><g>
	<g>
		<path d="M4.037,175.933H3.951c-2.202,0-3.951,1.788-3.951,3.998c0,2.209,1.827,3.998,4.037,3.998c2.202,0,3.998-1.789,3.998-3.998    C8.035,177.721,6.239,175.933,4.037,175.933z" data-original="#000000" class="active-path" data-old_color="#c49c99" fill="#c49c99"/>
	</g>
</g><g>
	<g>
		<path d="M291.894,423.814h-0.078c-2.201,0-3.951,1.787-3.951,3.998c0,2.209,1.828,3.998,4.029,3.998    c2.203,0,3.998-1.789,3.998-3.998C295.892,425.601,294.097,423.814,291.894,423.814z" data-original="#000000" class="active-path" data-old_color="#c49c99" fill="#c49c99"/>
	</g>
</g><g>
	<g>
		<path d="M195.945,487.783h-0.086c-2.202,0-3.951,1.788-3.951,3.998c0,2.21,1.827,3.998,4.037,3.998    c2.202,0,3.998-1.788,3.998-3.998C199.943,489.571,198.147,487.783,195.945,487.783z" data-original="#000000" class="active-path" data-old_color="#c49c99" fill="#c49c99"/>
	</g>
</g><g>
	<g>
		<path d="M75.76,16.009c-2.21,0-3.998,1.788-3.998,3.998v31.985c0,2.209,1.788,3.998,3.998,3.998c2.21,0,3.998-1.788,3.998-3.998    V20.007C79.758,17.797,77.97,16.009,75.76,16.009z" data-original="#000000" class="active-path" data-old_color="#c49c99" fill="#c49c99"/>
	</g>
</g><g>
	<g>
		<path d="M83.756,32.002H67.764c-2.21,0-3.998,1.788-3.998,3.998c0,2.21,1.788,3.998,3.998,3.998h15.992    c2.21,0,3.998-1.788,3.998-3.998C87.754,33.79,85.966,32.002,83.756,32.002z" data-original="#000000" class="active-path" data-old_color="#c49c99" fill="#c49c99"/>
	</g>
</g><g>
	<g>
		<path d="M459.58,431.81c-2.218,0-3.998,1.787-3.998,3.998v31.984c0,2.21,1.78,3.998,3.998,3.998c2.202,0,3.998-1.788,3.998-3.998    v-31.984C463.578,433.597,461.782,431.81,459.58,431.81z" data-original="#000000" class="active-path" data-old_color="#c49c99" fill="#c49c99"/>
	</g>
</g><g>
	<g>
		<path d="M467.576,447.802h-15.992c-2.218,0-3.998,1.788-3.998,3.998c0,2.209,1.78,3.998,3.998,3.998h15.992    c2.202,0,3.998-1.789,3.998-3.998C471.574,449.59,469.778,447.802,467.576,447.802z" data-original="#000000" class="active-path" data-old_color="#c49c99" fill="#c49c99"/>
	</g>
</g><g>
	<g>
		<path d="M67.772,399.825c-19.842,0-35.983,16.14-35.983,35.983c0,19.841,16.141,35.982,35.983,35.982    c19.842,0,35.982-16.14,35.982-35.982C103.754,415.966,87.614,399.825,67.772,399.825z M67.772,463.794    c-15.43,0-27.986-12.556-27.986-27.986s12.556-27.987,27.986-27.987s27.986,12.556,27.986,27.987    C95.758,451.237,83.202,463.794,67.772,463.794z" data-original="#000000" class="active-path" data-old_color="#c49c99" fill="#c49c99"/>
	</g>
</g><g>
	<g>
		<path d="M89.137,424.017c-0.71-1.242-2.389-2.187-3.826-2.187c-0.094,0-0.96,0.031-1.054,0.039c-0.977,0-1.601-0.164-1.968-0.32    c-0.024-0.328-0.079-0.656-0.188-0.976c-0.391-1.226-1.359-2.194-2.593-2.585l-10.698-3.404c-1.163-0.516-3.03-0.961-6.887-1.624    c-1.96-0.344-6.231,0.358-9.503,3.748c-1.742,1.811-3.772,5.091-3.577,10.495c0.234,5.966,4.365,10.011,10.276,10.089    c0.015,0,1.202,0,1.218,0c0.539,0,1.968,0,2.374,0.468c0.39,1.398,0.476,2.827,0.578,4.248c0.141,1.773,0.289,3.538,0.719,5.279    c1.265,5.044,4.38,6.044,6.122,6.2c0.117,0.015,0.671,0.031,0.788,0.031c4.233,0,6.872-3.062,8.154-4.544    c0.328-0.375,0.679-0.735,1.031-1.101c0.983-1.008,2.1-2.148,2.951-3.71c0.984-1.78,1.32-3.56,1.609-5.114    c0.219-1.164,0.414-2.163,1.109-3.365C89.215,429.78,90.676,426.704,89.137,424.017z M70.918,449.52l-0.078-3.998    c0.024,0,0.055,0,0.078,0.008V449.52z M78.547,432.192c-1.077,1.882-1.445,3.819-1.741,5.364c-0.211,1.125-0.391,2.086-0.773,2.78    c-0.32,0.594-0.938,1.219-1.648,1.952c-0.476,0.485-0.952,0.969-1.382,1.469c-0.281,0.336-0.804,0.937-1.296,1.343    c-0.273-1.218-0.351-2.452-0.445-3.701c-0.133-1.749-0.281-3.749-0.843-5.763c-1.749-6.341-7.59-6.341-10.081-6.341l-0.321,3.998    l-0.805-3.998c-1.186-0.015-2.296-0.312-2.374-2.397c-0.211-5.661,3.764-6.005,3.92-6.036c3.46,0.609,4.491,0.905,4.6,0.921    c0.242,0.141,0.492,0.25,0.758,0.336l8.589,2.733c0.031,0.055,0.055,0.118,0.086,0.18c1.016,2.015,2.936,3.498,5.412,4.264    C79.757,430.107,79.203,431.06,78.547,432.192z" data-original="#000000" class="active-path" data-old_color="#c49c99" fill="#c49c99"/>
	</g>
</g><g>
	<g>
		<path d="M459.58,16.009c-19.834,0-35.982,16.141-35.982,35.983c0,19.842,16.148,35.983,35.982,35.983    c19.849,0,35.982-16.141,35.982-35.983C495.562,32.15,479.43,16.009,459.58,16.009z M459.58,79.978    c-15.429,0-27.986-12.556-27.986-27.986c0-15.43,12.556-27.987,27.986-27.987c15.429,0,27.986,12.557,27.986,27.987    C487.566,67.422,475.009,79.978,459.58,79.978z" data-original="#000000" class="active-path" data-old_color="#c49c99" fill="#c49c99"/>
	</g>
</g><g>
	<g>
		<path d="M451.583,32.002H431.89c-2.218,0-3.998,1.788-3.998,3.998c0,2.21,1.78,3.998,3.998,3.998h19.693    c2.218,0,3.998-1.788,3.998-3.998C455.581,33.79,453.801,32.002,451.583,32.002z" data-original="#000000" class="active-path" data-old_color="#c49c99" fill="#c49c99"/>
	</g>
</g><g>
	<g>
		<path d="M463.578,47.994c-8.965,0-15.992,5.267-15.992,11.994s7.027,11.994,15.992,11.994c8.964,0,15.992-5.266,15.992-11.993    S472.543,47.994,463.578,47.994z M463.578,63.986c-4.873,0-7.996-2.366-7.996-3.998s3.123-3.998,7.996-3.998    c4.888,0,7.996,2.366,7.996,3.998S468.467,63.986,463.578,63.986z" data-original="#000000" class="active-path" data-old_color="#c49c99" fill="#c49c99"/>
	</g>
</g><g>
	<g>
		<path d="M255.674,95.971c-83.773,0-151.927,68.154-151.927,151.927s68.155,151.927,151.927,151.927    c83.776,0,151.931-68.154,151.931-151.927S339.45,95.971,255.674,95.971z M255.674,391.829    c-79.36,0-143.931-64.563-143.931-143.931c0-79.365,64.571-143.931,143.931-143.931c79.356,0,143.935,64.567,143.935,143.931    C399.609,327.267,335.03,391.829,255.674,391.829z" data-original="#000000" class="active-path" data-old_color="#c49c99" fill="#c49c99"/>
	</g>
</g><g>
	<g>
		<path d="M235.667,135.937c-19.841,0-35.982,16.14-35.982,35.982c0,19.842,16.14,35.983,35.982,35.983    c19.843,0,35.987-16.141,35.986-35.983C271.653,152.078,255.509,135.937,235.667,135.937z M235.667,199.905    c-15.429,0-27.986-12.556-27.986-27.987c0-15.429,12.556-27.986,27.986-27.986c15.431,0,27.987,12.557,27.986,27.986    C263.653,187.349,251.098,199.905,235.667,199.905z" data-original="#000000" class="active-path" data-old_color="#c49c99" fill="#c49c99"/>
	</g>
</g><g>
	<g>
		<path d="M339.637,199.921c-6.622,0-11.994,5.381-11.994,11.995c0,6.614,5.372,11.994,11.994,11.994    c6.607,0,11.994-5.381,11.994-11.994C351.631,205.301,346.243,199.921,339.637,199.921z M339.637,215.913    c-2.202,0-3.998-1.792-3.998-3.998s1.796-3.998,3.998-3.998c2.202,0,3.998,1.792,3.998,3.998S341.839,215.913,339.637,215.913z" data-original="#000000" class="active-path" data-old_color="#c49c99" fill="#c49c99"/>
	</g>
</g><g>
	<g>
		<path d="M239.689,327.859c-8.816,0-15.992,7.169-15.992,15.993c0,8.823,7.176,15.992,15.992,15.992    c8.816,0,15.993-7.169,15.993-15.992C255.682,335.028,248.505,327.859,239.689,327.859z M239.689,351.848    c-4.412,0-7.996-3.593-7.996-7.996c0-4.404,3.584-7.996,7.996-7.996c4.412,0,7.996,3.592,7.996,7.996    C247.685,348.255,244.101,351.848,239.689,351.848z" data-original="#000000" class="active-path" data-old_color="#c49c99" fill="#c49c99"/>
	</g>
</g><g>
	<g>
		<path d="M163.718,247.899c-15.431,0-27.987,12.557-27.987,27.986c0,15.429,12.556,27.986,27.987,27.986    c15.43,0,27.986-12.557,27.986-27.986C191.704,260.456,179.148,247.899,163.718,247.899z M163.718,295.874    c-11.027,0-19.991-8.964-19.991-19.99c0-11.025,8.965-19.99,19.991-19.99s19.99,8.965,19.99,19.99    C183.708,286.91,174.743,295.874,163.718,295.874z" data-original="#000000" class="active-path" data-old_color="#c49c99" fill="#c49c99"/>
	</g>
</g><g>
	<g>
		<path d="M347.633,303.871c-6.622,0-11.994,5.381-11.994,11.994c0,6.614,5.372,11.994,11.994,11.994    c6.607,0,11.994-5.38,11.994-11.994C359.627,309.252,354.239,303.871,347.633,303.871z M347.633,319.863    c-2.202,0-3.998-1.795-3.998-3.998c0-2.201,1.796-3.998,3.998-3.998c2.202,0,3.998,1.797,3.998,3.998    C351.631,318.068,349.835,319.863,347.633,319.863z" data-original="#000000" class="active-path" data-old_color="#c49c99" fill="#c49c99"/>
	</g>
</g><g>
	<g>
		<path d="M275.667,239.902c-11.026,0-19.994,8.968-19.994,19.99c0,11.026,8.969,19.99,19.994,19.99    c11.027,0,19.992-8.964,19.991-19.99C295.658,248.87,286.693,239.902,275.667,239.902z M275.667,271.886    c-6.621,0-11.998-5.38-11.998-11.994c0-6.614,5.377-11.994,11.998-11.994c6.607,0,11.995,5.38,11.995,11.994    C287.662,266.506,282.273,271.886,275.667,271.886z" data-original="#000000" class="active-path" data-old_color="#c49c99" fill="#c49c99"/>
	</g>
</g></g> </svg>
